<svg xmlns="http://www.w3.org/2000/svg" width="22.734" height="22.734" viewBox="0 0 22.734 22.734"><path d="M11.367,22.734A11.367,11.367,0,1,0,0,11.367,11.4,11.4,0,0,0,11.367,22.734Zm0-21.335A9.968,9.968,0,1,1,1.4,11.367,9.964,9.964,0,0,1,11.367,1.4Zm0,0" fill="#ee273a"/><path d="M26.061,33.38a1.18,1.18,0,1,1-1.18-1.18,1.176,1.176,0,0,1,1.18,1.18Zm0,0" transform="translate(-13.338 -18.122)" fill="#ee273a"/><path d="M25,18.845a.691.691,0,0,0,.7-.7V12.2a.7.7,0,1,0-1.4,0v5.946a.691.691,0,0,0,.7.7Zm0,0" transform="translate(-13.676 -6.472)" fill="#ee273a"/></svg>