<svg xmlns="http://www.w3.org/2000/svg" width="151" height="17.93" viewBox="0 0 151 17.93">
  <g id="Grupo_738" data-name="Grupo 738" transform="translate(-230 -1105.07)">
    <path id="Trazado_1" data-name="Trazado 1" d="M10.777,5.772a.592.592,0,0,1,.347.5.532.532,0,0,1-.095.315L9.2,9.742a.25.25,0,0,1-.252.158A.281.281,0,0,1,8.7,9.742L6.869,6.591a.532.532,0,0,1-.095-.315.561.561,0,0,1,.315-.5,5.4,5.4,0,0,1,1.859-.347,6.055,6.055,0,0,1,1.828.347ZM5.388,6.812a.476.476,0,0,1,.5-.032.535.535,0,0,1,.189.189L7.563,9.522c.032.063.063.158,0,.221a.319.319,0,0,1-.221.126H4.38a.34.34,0,0,1-.252-.063.459.459,0,0,1-.221-.41,4.4,4.4,0,0,1,.5-1.449,5.628,5.628,0,0,1,.977-1.134Zm7.09,0a.476.476,0,0,0-.5-.032.535.535,0,0,0-.189.189L10.3,9.522a.152.152,0,0,0,0,.221.319.319,0,0,0,.221.126h2.962a.34.34,0,0,0,.252-.063.459.459,0,0,0,.221-.41,4.4,4.4,0,0,0-.5-1.449,5.628,5.628,0,0,0-.977-1.134Zm-3.12,3.97v2.741H8.508V10.782h-4.1a1.2,1.2,0,0,1-.725-.189,1.358,1.358,0,0,1-.662-1.2.4.4,0,0,1,.032-.189,4.922,4.922,0,0,1,.63-1.67A5.564,5.564,0,0,1,4.853,6.15,1.433,1.433,0,0,1,5.987,5.9a1.4,1.4,0,0,1,.725-.851.689.689,0,0,0,.158-.095,6.6,6.6,0,0,1,2.111-.378,5.839,5.839,0,0,1,2.111.378,1.525,1.525,0,0,1,.851.914,1.3,1.3,0,0,1,1.071.221,5.549,5.549,0,0,1,1.229,1.449,5.683,5.683,0,0,1,.63,1.67A.4.4,0,0,0,14.9,9.4a1.3,1.3,0,0,1-.662,1.2,1.464,1.464,0,0,1-.725.189H9.359ZM8.949.951a8.1,8.1,0,1,0,8.067,8.1A8.1,8.1,0,0,0,8.949.951Zm0-.851A8.933,8.933,0,1,1,0,9.049,8.943,8.943,0,0,1,8.949.1Z" transform="translate(230 1105.002)" fill="#ee273a" fill-rule="evenodd"/>
    <g id="Grupo_1" data-name="Grupo 1" transform="translate(255.398 1105.07)">
      <path id="Trazado_2" data-name="Trazado 2" d="M87.217,0l4.349,8.949L95.946,0h6.617V17.9H95.946V8.949L91.566,17.9,87.217,8.949V17.9H80.6V0Z" transform="translate(-80.6)" fill="#ee273a"/>
      <path id="Trazado_3" data-name="Trazado 3" d="M168,2.678l-2.678,9.327h5.357ZM157,17.9,162.168,0h11.691l5.136,17.9h-6.617l-.851-2.931h-7.058l-.851,2.931Z" transform="translate(-132.926)" fill="#ee273a"/>
      <path id="Trazado_4" data-name="Trazado 4" d="M241.561,2.08c1.481,0,2.931.788,2.931,2.426a2.905,2.905,0,0,1-2.931,2.931h-1.449V2.08h1.449ZM245.784,0a5.231,5.231,0,1,1,0,10.462h-5.766V17.93H233.4V0Z" transform="translate(-185.251)" fill="#ee273a" fill-rule="evenodd"/>
      <path id="Trazado_5" data-name="Trazado 5" d="M296.6,0h17.552V2.931H303.186V7.5h10.966V10.43H303.186V17.9H296.6Z" transform="translate(-228.537)" fill="#ee273a"/>
      <path id="Trazado_6" data-name="Trazado 6" d="M430.017,14.968h10.966V17.9H423.4V0h17.583V2.931H430.017V7.5h10.966V10.43H430.017Z" transform="translate(-315.381)" fill="#ee273a"/>
      <path id="Trazado_7" data-name="Trazado 7" d="M367.861,2.08c1.449,0,2.93.788,2.93,2.426a2.925,2.925,0,0,1-2.93,2.931h-1.45V2.08h1.45ZM377.283,13.3v0Zm0,.126V17.9h-6.491V13.424a2.945,2.945,0,0,0-2.93-2.931h-1.45V17.9H359.7V0h13.109a4.475,4.475,0,0,1,0,8.949,4.461,4.461,0,0,1,4.475,4.317Z" transform="translate(-271.753)" fill="#ee273a" fill-rule="evenodd"/>
    </g>
  </g>
</svg>
