<svg xmlns="http://www.w3.org/2000/svg" width="223.895" height="69.818" viewBox="0 0 223.895 69.818">
  <g id="Grupo_740" data-name="Grupo 740" transform="translate(22282 14142)">
    <g id="Grupo_637" data-name="Grupo 637" transform="translate(-22282 -14129.145)">
      <g id="Grupo_631" data-name="Grupo 631">
        <path id="Trazado_738" data-name="Trazado 738" d="M25.874,99.881a1.5,1.5,0,0,1,.95-.475,1.243,1.243,0,0,1,.443.095,1.187,1.187,0,0,1,.443.38l.855,1.14a1.024,1.024,0,0,1,.253.633.636.636,0,0,1-.19.538c-.158.19-.38.443-.7.76a19.248,19.248,0,0,1-5.161,3.483A15.1,15.1,0,0,1,16.5,107.7a15.818,15.818,0,0,1-11.747-5,17.111,17.111,0,0,1-3.42-5.414A17.738,17.738,0,0,1,.1,90.635a17.976,17.976,0,0,1,1.235-6.649,16.432,16.432,0,0,1,3.42-5.414A15.95,15.95,0,0,1,16.5,73.6a16.1,16.1,0,0,1,5.984,1.108,17.315,17.315,0,0,1,5.035,3.1,4.347,4.347,0,0,1,.7.633,1.194,1.194,0,0,1,.348.792,1.057,1.057,0,0,1-.285.728l-.7.887a2.856,2.856,0,0,1-.507.538.76.76,0,0,1-.475.19,1.3,1.3,0,0,1-.918-.507A14.384,14.384,0,0,0,21.6,78.286a12.238,12.238,0,0,0-4.971-1.013,12.174,12.174,0,0,0-9.056,3.895,13.494,13.494,0,0,0-2.628,4.243,14.5,14.5,0,0,0,0,10.322,13.494,13.494,0,0,0,2.628,4.243,11.731,11.731,0,0,0,3.99,2.881,12.19,12.19,0,0,0,5.066,1.045,10.477,10.477,0,0,0,2.628-.317,13.5,13.5,0,0,0,2.47-.887,17.335,17.335,0,0,0,2.248-1.3A13.78,13.78,0,0,0,25.874,99.881Z" transform="translate(-0.1 -63.151)" fill="#ee273a"/>
        <path id="Trazado_739" data-name="Trazado 739" d="M101.5,90.935a16.849,16.849,0,0,1,1.33-6.649,16.477,16.477,0,0,1,3.641-5.414,16.82,16.82,0,0,1,12-4.971,16.849,16.849,0,0,1,6.649,1.33,16.477,16.477,0,0,1,5.414,3.641,17.162,17.162,0,0,1,3.641,5.414,17.209,17.209,0,0,1,0,13.267,16.979,16.979,0,0,1-9.056,9.056,16.957,16.957,0,0,1-18.65-3.641,17.71,17.71,0,0,1-3.641-5.414A16.584,16.584,0,0,1,101.5,90.935Zm3.641,0a12.259,12.259,0,0,0,1.077,5.161,13.6,13.6,0,0,0,2.881,4.243,13.291,13.291,0,0,0,14.6,2.881,13.222,13.222,0,0,0,4.275-2.881,13.979,13.979,0,0,0,2.881-4.243,13.062,13.062,0,0,0,0-10.386,13.745,13.745,0,0,0-2.881-4.275,13.387,13.387,0,0,0-4.275-2.881,13.106,13.106,0,0,0-5.161-1.077,12.507,12.507,0,0,0-5.193,1.077,13.6,13.6,0,0,0-4.243,2.881,13.387,13.387,0,0,0-2.881,4.275A12.76,12.76,0,0,0,105.141,90.935Z" transform="translate(-69.393 -63.356)" fill="#ee273a"/>
        <path id="Trazado_740" data-name="Trazado 740" d="M238.163,105.907a1.082,1.082,0,0,1-1.235,1.2h-1.362c-.855,0-1.267-.412-1.267-1.2V75.415a1.155,1.155,0,0,1,.253-.76,1.027,1.027,0,0,1,.76-.285h1.963a.719.719,0,0,1,.507.19.789.789,0,0,1,.253.538l.1,4.528a14.9,14.9,0,0,1,1.963-2.311,13.051,13.051,0,0,1,2.5-1.836,14.914,14.914,0,0,1,2.913-1.235,12.287,12.287,0,0,1,3.261-.443,12.991,12.991,0,0,1,5.319,1.077,12.467,12.467,0,0,1,4.243,2.945,13.139,13.139,0,0,1,2.818,4.37,13.938,13.938,0,0,1,1.045,5.383v18.238a1.4,1.4,0,0,1-.348,1.013,1.292,1.292,0,0,1-.95.348h-1.362a1.075,1.075,0,0,1-.918-.317,1.455,1.455,0,0,1-.253-.982v-18.4a9.955,9.955,0,0,0-2.976-7,9.846,9.846,0,0,0-6.966-2.85,10.288,10.288,0,0,0-9.246,5.794,9.6,9.6,0,0,0-.95,3.768v18.713Z" transform="translate(-160.144 -63.288)" fill="#ee273a"/>
        <path id="Trazado_741" data-name="Trazado 741" d="M354.64,81.034a1.521,1.521,0,0,1,.982.317,1.145,1.145,0,0,1,.412.982v1.108a1.171,1.171,0,0,1-.443,1.045,1.985,1.985,0,0,1-1.108.253h-1.013a19.881,19.881,0,0,1-3.166-.222,5.632,5.632,0,0,1-2.533-1.013,5.445,5.445,0,0,1-1.678-2.375,12.211,12.211,0,0,1-.6-4.306V55.387H340.9a1.654,1.654,0,0,1-.982-.253,1.115,1.115,0,0,1-.317-.918V52.98a1.075,1.075,0,0,1,.317-.918,1.456,1.456,0,0,1,.982-.253h4.591V41.993c0-.665.38-1.045,1.108-1.172l1.678-.222a.9.9,0,0,1,.887.412,1.924,1.924,0,0,1,.222,1.013v9.816h5.763a1.418,1.418,0,0,1,.95.285,1.2,1.2,0,0,1,.348.95v1.108a1.2,1.2,0,0,1-.348.95,1.418,1.418,0,0,1-.95.285h-5.763V75.937a12.639,12.639,0,0,0,.222,2.755,3.275,3.275,0,0,0,.728,1.488,2.32,2.32,0,0,0,1.235.633c.507.095,1.108.19,1.8.253h1.267Z" transform="translate(-232.102 -40.6)" fill="#ee273a"/>
        <path id="Trazado_742" data-name="Trazado 742" d="M506.534,99.986v2.533a6.891,6.891,0,0,1-.032.792,19.324,19.324,0,0,1-1.33,7.473,15.768,15.768,0,0,1-3.515,5.288,14.333,14.333,0,0,1-5.1,3.135,17.555,17.555,0,0,1-6.016,1.045,16.066,16.066,0,0,1-4.655-.633,19.181,19.181,0,0,1-3.99-1.71h.032a3.124,3.124,0,0,1-.633-.412.644.644,0,0,1-.19-.475,1.123,1.123,0,0,1,.19-.507c.127-.222.285-.443.443-.7s.317-.475.475-.7.253-.348.285-.412a.99.99,0,0,1,.443-.38,1.534,1.534,0,0,1,.538,0,2.033,2.033,0,0,1,.633.253,5.152,5.152,0,0,0,.728.348,18,18,0,0,0,2.691.95,10.832,10.832,0,0,0,2.818.412,12.987,12.987,0,0,0,4.528-.792,11.318,11.318,0,0,0,6.681-6.333,13.368,13.368,0,0,0,1.045-5.446V100.4a11,11,0,0,1-1.868,3.166,11.979,11.979,0,0,1-2.85,2.343,14.651,14.651,0,0,1-3.546,1.457,15.512,15.512,0,0,1-15.42-4.465,17.087,17.087,0,0,1-3.388-5.383A17.692,17.692,0,0,1,474.3,90.9a18.623,18.623,0,0,1,1.2-6.649A17.313,17.313,0,0,1,478.86,78.8a15.774,15.774,0,0,1,5.066-3.673,15.281,15.281,0,0,1,6.364-1.33,15.767,15.767,0,0,1,4.243.57,14.793,14.793,0,0,1,3.673,1.583,11.842,11.842,0,0,1,2.85,2.438,9.09,9.09,0,0,1,1.71,3.1l.127-5.7a1.552,1.552,0,0,1,.348-1.013,1.243,1.243,0,0,1,.95-.348h.95a1.426,1.426,0,0,1,.982.348,1.291,1.291,0,0,1,.38,1.013V99.986Zm-3.8-9.056a14.758,14.758,0,0,0-.918-5.161,13.934,13.934,0,0,0-2.6-4.275,11.92,11.92,0,0,0-3.958-2.881,11.733,11.733,0,0,0-4.94-1.077,11.077,11.077,0,0,0-4.94,1.077,11.992,11.992,0,0,0-3.863,2.881,13.266,13.266,0,0,0-2.533,4.243,14.628,14.628,0,0,0-.918,5.161,14.454,14.454,0,0,0,.918,5.13,13.114,13.114,0,0,0,2.533,4.211,11.9,11.9,0,0,0,3.863,2.85,11.466,11.466,0,0,0,4.908,1.045,11.672,11.672,0,0,0,4.908-1.045,12.2,12.2,0,0,0,3.958-2.818,13.194,13.194,0,0,0,2.628-4.18A13.849,13.849,0,0,0,502.734,90.93Z" transform="translate(-324.151 -63.288)" fill="#ee273a"/>
        <path id="Trazado_743" data-name="Trazado 743" d="M599.8,90.935a16.849,16.849,0,0,1,1.33-6.649,16.476,16.476,0,0,1,3.641-5.414,16.819,16.819,0,0,1,12-4.971,16.849,16.849,0,0,1,6.649,1.33,16.477,16.477,0,0,1,5.414,3.641,17.162,17.162,0,0,1,3.641,5.414,17.209,17.209,0,0,1,0,13.267,16.978,16.978,0,0,1-9.056,9.056,16.957,16.957,0,0,1-18.65-3.641,17.71,17.71,0,0,1-3.641-5.414A16.584,16.584,0,0,1,599.8,90.935Zm3.641,0a12.258,12.258,0,0,0,1.077,5.161,13.6,13.6,0,0,0,2.881,4.243,13.291,13.291,0,0,0,14.6,2.881,13.223,13.223,0,0,0,4.275-2.881,13.98,13.98,0,0,0,2.881-4.243,13.062,13.062,0,0,0,0-10.386,13.747,13.747,0,0,0-2.881-4.275A13.387,13.387,0,0,0,622,78.555a13.106,13.106,0,0,0-5.161-1.077,12.507,12.507,0,0,0-5.193,1.077,13.6,13.6,0,0,0-4.243,2.881,13.537,13.537,0,0,0-3.958,9.5Z" transform="translate(-409.913 -63.356)" fill="#ee273a"/>
      </g>
      <g id="Grupo_635" data-name="Grupo 635" transform="translate(131.911 11.502)">
        <g id="Grupo_634" data-name="Grupo 634">
          <g id="Grupo_633" data-name="Grupo 633">
            <g id="Grupo_632" data-name="Grupo 632">
              <path id="Trazado_744" data-name="Trazado 744" d="M452.04,78.089a1.138,1.138,0,0,1-.063.348l-3.451,10.956a3.476,3.476,0,0,0-.728-1.836,4.013,4.013,0,0,0-.348-.412,3.464,3.464,0,0,0-.348-.317l1.33-4.243,1.552-4.908a1.056,1.056,0,0,1,1.33-.7A1.246,1.246,0,0,1,452.04,78.089Z" transform="translate(-437.474 -76.926)" fill="#ee273a"/>
              <path id="Trazado_745" data-name="Trazado 745" d="M449.65,116.748v19.79h-.95V117.92a.984.984,0,0,0,.665-.7l.253-.823A1.188,1.188,0,0,1,449.65,116.748Z" transform="translate(-438.568 -103.901)" fill="#ee273a"/>
              <path id="Trazado_746" data-name="Trazado 746" d="M448.99,110.5a4.085,4.085,0,0,1,.728,1.836h0l-.253.823a1.047,1.047,0,0,1-.665.7v-3.1Z" transform="translate(-438.636 -99.869)" fill="#ee273a"/>
              <path id="Trazado_747" data-name="Trazado 747" d="M436.359,83.371a4.129,4.129,0,0,1-.158,1.14,3.229,3.229,0,0,1-6.143,0,4.31,4.31,0,0,1-.158-1.14A3.234,3.234,0,1,1,436.359,83.371Z" transform="translate(-425.72 -79.009)" fill="#ee273a"/>
              <path id="Trazado_748" data-name="Trazado 748" d="M436.81,114.435v18.618h-2.121v-8.2h-1.045v8.2H431.3V114.5a.728.728,0,0,0,.443-.063,1.144,1.144,0,0,0,.665-1.425l-.538-1.71h4.116l-.538,1.71a1.172,1.172,0,0,0,.665,1.425A1.3,1.3,0,0,0,436.81,114.435Z" transform="translate(-426.677 -100.416)" fill="#ee273a"/>
              <path id="Trazado_749" data-name="Trazado 749" d="M445.71,111.232v3.1a.961.961,0,0,1-.665,0,1.144,1.144,0,0,1-.665-1.425l.538-1.71h.792Z" transform="translate(-435.578 -100.347)" fill="#ee273a"/>
              <path id="Trazado_750" data-name="Trazado 750" d="M446.865,108.685a2.18,2.18,0,0,1,.348.412l-.222.253H446.2l.317-.95A1.38,1.38,0,0,1,446.865,108.685Z" transform="translate(-436.859 -98.434)" fill="#ee273a"/>
              <path id="Trazado_751" data-name="Trazado 751" d="M437.086,106.592l-.317.95h-4.116l-.253-.855a3.579,3.579,0,0,1,2.406-.887A3.82,3.82,0,0,1,437.086,106.592Z" transform="translate(-427.429 -96.657)" fill="#ee273a"/>
              <path id="Trazado_752" data-name="Trazado 752" d="M431.4,114.466V111.3h.57l.538,1.71a1.172,1.172,0,0,1-.665,1.425A1.017,1.017,0,0,1,431.4,114.466Z" transform="translate(-426.745 -100.416)" fill="#ee273a"/>
              <path id="Trazado_753" data-name="Trazado 753" d="M420.31,82.917l1.362,4.275a3.667,3.667,0,0,0-1.3,2.818v.127l-3.61-11.462a1.347,1.347,0,0,1-.063-.348,1.052,1.052,0,0,1,2.058-.348Z" transform="translate(-416.7 -77.131)" fill="#ee273a"/>
              <path id="Trazado_754" data-name="Trazado 754" d="M429.282,118.977v18.587H428.3V117.9l.1.317A1.077,1.077,0,0,0,429.282,118.977Z" transform="translate(-424.627 -104.926)" fill="#ee273a"/>
              <path id="Trazado_755" data-name="Trazado 755" d="M429.282,109.455v3.166a1.04,1.04,0,0,1-.887-.76l-.1-.317v-.127a3.768,3.768,0,0,1,1.3-2.818l.253.855Z" transform="translate(-424.627 -98.571)" fill="#ee273a"/>
            </g>
          </g>
        </g>
      </g>
    </g>
    <g id="Grupo_638" data-name="Grupo 638" transform="translate(-22280.955 -14142)">
      <path id="Trazado_767" data-name="Trazado 767" d="M64.155.1l3.1,6.048L70.329.1h4.655V12.2H70.329V6.148L67.258,12.2l-3.1-6.048V12.2H59.5V.1h4.655" transform="translate(-41.737 -0.068)" fill="#ee273a"/>
      <path id="Trazado_768" data-name="Trazado 768" d="M113.2,12.2,116.841.1h8.233l3.641,12.1h-4.655l-.6-1.995h-4.971l-.6,1.995H113.2M120.926,1.9l-1.9,6.3h3.8Z" transform="translate(-78.433 -0.068)" fill="#ee273a"/>
      <path id="Trazado_769" data-name="Trazado 769" d="M175.607.032a3.6,3.6,0,0,1,3.673,3.515,3.6,3.6,0,0,1-3.673,3.515h-4.053V12.1H166.9V0l8.708.032m-2.976,1.393c1.045,0,2.058.538,2.058,1.647a2,2,0,0,1-2.058,1.995h-1.013V1.457Z" transform="translate(-115.13)" fill="#ee273a" fill-rule="evenodd"/>
      <path id="Trazado_770" data-name="Trazado 770" d="M211.1.1h12.412V2.095h-7.726V5.166h7.726V7.129h-7.726V12.2H211.1V.1" transform="translate(-145.335 -0.068)" fill="#ee273a"/>
      <path id="Trazado_771" data-name="Trazado 771" d="M304.855,10.2h7.726V12.2H300.2V.1h12.38V2.095h-7.726V5.166h7.726V7.129h-7.726V10.2" transform="translate(-206.222 -0.068)" fill="#ee273a"/>
      <path id="Trazado_772" data-name="Trazado 772" d="M267.812,9.087V12.1h-4.591V9.087a2.021,2.021,0,0,0-2.058-1.995H260.15v5H255.4V0h9.246a3.1,3.1,0,0,1,3.166,3.008,3.084,3.084,0,0,1-3.166,3.008,3.11,3.11,0,0,1,3.166,2.913v.158m0-.095v0Zm-6.649-7.568c1.013,0,2.058.538,2.058,1.647a2.021,2.021,0,0,1-2.058,1.995H260.15V1.457Z" transform="translate(-175.608)" fill="#ee273a" fill-rule="evenodd"/>
      <path id="Trazado_773" data-name="Trazado 773" d="M15.578,10.255a.389.389,0,0,1,.222.348.458.458,0,0,1-.063.222l-1.3,2.121a.174.174,0,0,1-.158.095.226.226,0,0,1-.19-.095l-1.3-2.121a.458.458,0,0,1-.063-.222.389.389,0,0,1,.222-.348.031.031,0,0,0,.032-.032A4.256,4.256,0,0,1,14.248,10a4.317,4.317,0,0,1,1.33.253h0m-3.768.7a.34.34,0,0,1,.348-.032c.063.032.095.095.127.127l1.045,1.742a.141.141,0,0,1,0,.158.116.116,0,0,1-.158.063h-2.09a.4.4,0,0,1-.19-.032.333.333,0,0,1-.158-.285v-.032a3.84,3.84,0,0,1,.348-.95,4.141,4.141,0,0,1,.728-.76Zm4.971,0a.34.34,0,0,0-.348-.032c-.063.032-.095.095-.127.127l-1.045,1.742a.141.141,0,0,0,0,.158.116.116,0,0,0,.158.063h2.09a.4.4,0,0,0,.19-.032.333.333,0,0,0,.158-.285v-.032a3.84,3.84,0,0,0-.348-.95,4.141,4.141,0,0,0-.728-.76ZM14.6,13.611v1.836h-.633V13.611H11.082a1,1,0,0,1-.507-.127.885.885,0,0,1-.475-.823v-.127a3.164,3.164,0,0,1,.443-1.14,3.8,3.8,0,0,1,.823-.918,1.144,1.144,0,0,1,.792-.19.83.83,0,0,1,.507-.57c.032-.032.095-.032.127-.063a4.5,4.5,0,0,1,2.976,0,1.178,1.178,0,0,1,.6.633.941.941,0,0,1,.76.158,3.676,3.676,0,0,1,.855.982,3.874,3.874,0,0,1,.443,1.14v.127a.954.954,0,0,1-.475.823,1,1,0,0,1-.507.127H15.388A5.17,5.17,0,0,0,14.6,13.611Z" transform="translate(-7.979 -6.424)" fill="#ee273a" fill-rule="evenodd"/>
      <path id="Trazado_774" data-name="Trazado 774" d="M9.7,0A6.166,6.166,0,0,1,16,6.048,6.186,6.186,0,0,1,9.7,12.1,6.166,6.166,0,0,1,3.4,6.048,6.166,6.166,0,0,1,9.7,0m0,.57A5.585,5.585,0,0,0,4,6.016a5.585,5.585,0,0,0,5.7,5.446,5.585,5.585,0,0,0,5.7-5.446A5.565,5.565,0,0,0,9.7.57Z" transform="translate(-3.4)" fill="#ee273a" fill-rule="evenodd"/>
    </g>
  </g>
</svg>
