<svg xmlns="http://www.w3.org/2000/svg" width="49.27" height="32.229" viewBox="0 0 49.27 32.229"><g transform="translate(-93 -1327.307)"><g transform="translate(93 1327.307)"><path d="M35.877,26.695H4.169A4.173,4.173,0,0,1,0,22.526V4.169A4.173,4.173,0,0,1,4.169,0h31.7a4.174,4.174,0,0,1,4.177,4.169V22.526A4.173,4.173,0,0,1,35.877,26.695ZM4.169,1.666a2.51,2.51,0,0,0-2.5,2.5V22.526a2.51,2.51,0,0,0,2.5,2.5h31.7a2.51,2.51,0,0,0,2.5-2.5V4.169a2.51,2.51,0,0,0-2.5-2.5Z" fill="#777"/><path d="M39.209,70.672H.837A.838.838,0,0,1,0,69.835V64.829A.836.836,0,0,1,.837,64h38.38a.838.838,0,0,1,.837.837v5.006A.843.843,0,0,1,39.209,70.672ZM1.666,69.006H38.373v-3.34H1.666Z" transform="translate(0 -58.994)" fill="#777"/><path d="M74.848,214.974H64.837a.837.837,0,1,1,0-1.674H74.848a.837.837,0,0,1,0,1.674Z" transform="translate(-58.994 -196.617)" fill="#777"/><path d="M74.848,257.574H64.837a.837.837,0,1,1,0-1.674H74.848a.837.837,0,0,1,0,1.674Z" transform="translate(-58.994 -235.885)" fill="#777"/><path d="M366.869,198.672H365.2a2.51,2.51,0,0,1-2.5-2.5V194.5a2.51,2.51,0,0,1,2.5-2.5h1.666a2.51,2.51,0,0,1,2.5,2.5v1.666A2.505,2.505,0,0,1,366.869,198.672Zm-1.666-5.006a.838.838,0,0,0-.837.837v1.666a.838.838,0,0,0,.837.837h1.666a.838.838,0,0,0,.837-.837V194.5a.838.838,0,0,0-.837-.837Z" transform="translate(-334.331 -176.983)" fill="#777"/></g><circle cx="7.788" cy="7.788" r="7.788" transform="translate(126.378 1343.655)" fill="#fcfcfc"/><g transform="translate(126 1343.266)"><path d="M8.135,16.27A8.135,8.135,0,1,0,0,8.135,8.159,8.159,0,0,0,8.135,16.27ZM8.135,1A7.134,7.134,0,1,1,1,8.135,7.13,7.13,0,0,1,8.135,1Zm0,0" fill="#ee273a"/><path d="M25.39,33.045a.845.845,0,1,1-.845-.845.841.841,0,0,1,.845.845Zm0,0" transform="translate(-16.285 -22.125)" fill="#ee273a"/><path d="M24.8,16.756a.494.494,0,0,0,.5-.5V12a.5.5,0,1,0-1,0v4.255a.494.494,0,0,0,.5.5Zm0,0" transform="translate(-16.697 -7.902)" fill="#ee273a"/></g></g></svg>