<svg xmlns="http://www.w3.org/2000/svg" width="28.572" height="25.125" viewBox="0 0 28.572 25.125"><g transform="translate(-269 -584.014)"><path d="M25.1,12.763a.762.762,0,0,0-1.521.112c.021.258.028.523.028.8A11.035,11.035,0,1,1,12.563,2.628a10.916,10.916,0,0,1,6.62,2.2A.762.762,0,0,0,20.1,3.611,12.434,12.434,0,0,0,12.563,1.1,12.563,12.563,0,1,0,25.125,13.663c0-.3-.007-.607-.028-.9Zm0,0" transform="translate(269 582.914)" fill="#51bf00"/><path d="M74.444,14.218a2.989,2.989,0,0,0-4.213,0l-11,11-3.9-3.9a2.979,2.979,0,0,0-4.213,4.213l6.717,6.717a1.97,1.97,0,0,0,2.79,0L74.444,18.432a2.976,2.976,0,0,0,0-4.213ZM73.363,17.35,59.552,31.169a.45.45,0,0,1-.635,0L52.2,24.451a1.451,1.451,0,0,1,1.025-2.476,1.43,1.43,0,0,1,1.025.425l4.011,4.011a1.381,1.381,0,0,0,1.939,0L71.312,15.3a1.45,1.45,0,0,1,2.051,2.051Zm0,0" transform="translate(222.255 571.519)" fill="#51bf00"/></g></svg>